HIERARCHY
ROOT Hips
{
	OFFSET 0.000000 0.000000 0.000000
	CHANNELS 6 Xposition Yposition Zposition Zrotation Yrotation Xrotation 
	JOINT LHipJoint
	{
		OFFSET 0.069520 -0.091406 -0.006815
		CHANNELS 3 Zrotation Yrotation Xrotation
		JOINT LeftLeg
		{
			OFFSET 0.034277 -0.375199 -0.004496
			CHANNELS 3 Zrotation Yrotation Xrotation
			JOINT LeftFoot
			{
				OFFSET -0.013596 -0.397961 -0.043693
				CHANNELS 3 Zrotation Yrotation Xrotation
				JOINT LeftToeBase
				{
					OFFSET 0.026358 -0.055791 0.119288
					CHANNELS 3 Zrotation Yrotation Xrotation
					End Site
					{
						OFFSET 0.000000 0.000000 0.000000
					}
				}
			}
		}
	}
	JOINT RHipJoint
	{
		OFFSET -0.067670 -0.090522 -0.004320
		CHANNELS 3 Zrotation Yrotation Xrotation
		JOINT RightLeg
		{
			OFFSET -0.038290 -0.382569 -0.008850
			CHANNELS 3 Zrotation Yrotation Xrotation
			JOINT RightFoot
			{
				OFFSET 0.015774 -0.398415 -0.042312
				CHANNELS 3 Zrotation Yrotation Xrotation
				JOINT RightToeBase
				{
					OFFSET -0.025372 -0.048144 0.123348
					CHANNELS 3 Zrotation Yrotation Xrotation
					End Site
					{
						OFFSET 0.000000 0.000000 0.000000
					}
				}
			}
		}
	}
	JOINT LowerBack
	{
		OFFSET -0.002533 0.108963 -0.026696
		CHANNELS 3 Zrotation Yrotation Xrotation
		JOINT Spine1
		{
			OFFSET 0.005487 0.135180 0.001092
			CHANNELS 3 Zrotation Yrotation Xrotation
			JOINT Spine2
			{
				OFFSET 0.001457 0.052922 0.025425
				CHANNELS 3 Zrotation Yrotation Xrotation
				JOINT Neck
				{
					OFFSET -0.002778 0.213870 -0.042857
					CHANNELS 3 Zrotation Yrotation Xrotation
					JOINT Neck1
					{
						OFFSET 0.005152 0.064970 0.051349
						CHANNELS 3 Zrotation Yrotation Xrotation
						End Site
						{
							OFFSET 0.000000 0.000000 0.000000
						}
					}
				}
				JOINT LeftShoulder
				{
					OFFSET 0.078845 0.121749 -0.034090
					CHANNELS 3 Zrotation Yrotation Xrotation
					JOINT LeftArm
					{
						OFFSET 0.090977 0.030469 -0.008868
						CHANNELS 3 Zrotation Yrotation Xrotation
						JOINT LeftForeArm
						{
							OFFSET 0.259612 -0.012772 -0.027456
							CHANNELS 3 Zrotation Yrotation Xrotation
							JOINT LeftHand
							{
								OFFSET 0.249234 0.008986 -0.001171
								CHANNELS 3 Zrotation Yrotation Xrotation
								End Site
								{
									OFFSET 0.000000 0.000000 0.000000
								}
							}
						}
					}
				}
				JOINT RightShoulder
				{
					OFFSET -0.081759 0.118833 -0.038615
					CHANNELS 3 Zrotation Yrotation Xrotation
					JOINT RightArm
					{
						OFFSET -0.096012 0.032551 -0.009143
						CHANNELS 3 Zrotation Yrotation Xrotation
						JOINT RightForeArm
						{
							OFFSET -0.253742 -0.013329 -0.021401
							CHANNELS 3 Zrotation Yrotation Xrotation
							JOINT RightHand
							{
								OFFSET -0.255298 0.007772 -0.005559
								CHANNELS 3 Zrotation Yrotation Xrotation
								End Site
								{
									OFFSET 0.000000 0.000000 0.000000
								}
							}
						}
					}
				}
			}
		}
	}
}
MOTION
Frames: 16
Frame Time: 0.050000
0.000000 0.959242 0.000000 1.085022 -5.112834 3.763774 -8.970329 -2.879142 -18.504150 1.773878 -0.806807 14.677842 3.447757 8.674610 6.340305 0.000000 0.000000 0.000000 -4.031844 0.318560 -2.270931 4.080278 0.795742 43.861107 -3.087788 -12.242434 17.108449 0.000000 0.000000 0.000000 -0.183418 -0.013650 0.479106 -1.887390 0.901356 0.019406 1.254675 9.055151 6.009227 4.227393 -0.782600 -15.985854 0.000000 0.000000 0.000000 -7.009188 1.847079 -1.921174 -37.283156 4.955516 -5.606600 -107.836413 -42.123102 55.277984 0.000000 0.000000 0.000000 3.170249 4.136364 1.613934 42.300668 7.276440 -1.744655 111.464709 60.096521 88.366870 0.000000 0.000000 0.000000 
0.003384 0.938886 -0.000784 0.023784 -3.032605 2.584640 -9.608750 -2.038150 -12.619413 1.978046 -0.970369 16.011337 4.184837 8.059940 -3.252565 0.000000 0.000000 0.000000 -3.779579 0.688067 -8.190926 7.401732 -1.502714 61.382279 -6.813981 -17.829284 13.332020 0.000000 0.000000 0.000000 1.278969 -0.078683 1.064571 -1.496748 0.715813 -0.599149 1.025671 7.847641 8.048723 3.263349 0.152210 -19.065229 0.000000 0.000000 0.000000 -9.911711 -2.366949 -0.642900 -35.742892 2.103004 -4.642192 -109.829490 -47.958331 65.029923 0.000000 0.000000 0.000000 2.838046 1.417100 0.542109 43.170165 3.257792 -3.248616 108.753065 52.286146 76.110118 0.000000 0.000000 0.000000 
0.003741 0.918595 -0.007144 -0.159518 -1.875558 0.180608 -9.336672 -1.272441 -7.913956 0.698701 -0.870896 21.582532 4.734362 7.345173 -9.864321 0.000000 0.000000 0.000000 -3.352210 1.384674 -17.708504 8.484002 -3.421671 79.197776 -9.941665 -23.239318 10.848340 0.000000 0.000000 0.000000 0.448820 -0.235887 5.280457 -0.468346 0.252180 -1.655329 0.038775 2.674391 8.711416 2.499463 0.121010 -19.771955 0.000000 0.000000 0.000000 -12.558135 -0.930666 -0.914030 -34.398871 -3.111687 -3.402116 -108.117116 -54.575500 74.284217 0.000000 0.000000 0.000000 6.041587 2.120661 0.504351 39.560195 0.400704 -3.989465 99.675593 52.061344 63.349865 0.000000 0.000000 0.000000 
0.001455 0.914431 -0.014293 -0.366151 -0.288961 0.324895 -9.542449 -0.093795 -1.229591 2.580458 -1.491055 20.769005 4.878578 7.043042 -10.990740 0.000000 0.000000 0.000000 -3.826334 1.944274 -27.243275 10.078707 -6.500403 83.615485 -13.145350 -29.614481 6.436910 0.000000 0.000000 0.000000 0.403735 -0.313596 7.016837 0.726575 -0.294984 -1.564345 -0.837808 -2.994785 8.011664 1.334399 0.201851 -19.452198 0.000000 0.000000 0.000000 -12.672566 -0.945979 -0.155907 -35.185349 -5.164139 -3.177740 -112.221511 -58.852778 86.632690 0.000000 0.000000 0.000000 7.625007 1.977393 -0.111689 36.898063 -3.222771 -4.509713 98.369100 48.044630 54.280956 0.000000 0.000000 0.000000 
-0.003142 0.934212 -0.016192 -1.763576 1.633380 1.571711 -6.722541 1.104102 6.614340 4.380857 -1.640682 15.103084 1.846986 1.579474 -5.198510 0.000000 0.000000 0.000000 -3.884102 2.298653 -35.300300 11.610513 -8.316773 75.807808 -12.287956 -27.943759 6.637867 0.000000 0.000000 0.000000 1.674344 -0.377113 6.229398 1.658401 -0.674878 -2.378511 -1.448359 -9.306062 8.265706 -1.573924 1.215440 -17.737202 0.000000 0.000000 0.000000 -12.552155 -0.679767 0.568208 -36.463914 -7.669661 -2.866195 -123.620893 -60.328836 105.486979 0.000000 0.000000 0.000000 5.584284 0.357364 -0.928095 37.265275 -6.986189 -5.508075 97.320189 44.043380 45.395440 0.000000 0.000000 0.000000 
-0.009471 0.965598 -0.012548 -3.481599 2.452782 3.626665 -3.320875 1.500499 12.257855 4.758741 -1.305502 10.053112 -2.388504 -0.512929 8.574160 0.000000 0.000000 0.000000 -0.866827 3.298547 -37.743642 10.568279 -5.593629 57.445915 -9.855583 -23.141583 8.813334 0.000000 0.000000 0.000000 2.807738 -0.279243 3.227192 3.628216 -1.548815 -2.460980 -2.355144 -12.077209 7.850497 -3.105563 1.936801 -13.971667 0.000000 0.000000 0.000000 -11.461323 0.183501 0.440024 -38.609802 -7.180920 -3.093559 -126.722106 -56.476465 107.052788 0.000000 0.000000 0.000000 3.978802 -0.161169 -0.951522 36.851118 -10.744843 -6.494380 98.195722 42.366683 42.720172 0.000000 0.000000 0.000000 
-0.015838 0.993241 -0.005960 -3.728134 3.363637 5.453067 -1.586312 1.464355 14.446529 5.047396 -1.528058 11.927792 -6.163359 -1.550603 19.507356 0.000000 0.000000 0.000000 2.375756 3.855697 -34.647704 6.405299 -1.755986 34.219926 -7.234891 -18.212114 13.980913 0.000000 0.000000 0.000000 2.788918 -0.070785 -0.199563 3.728062 -1.633983 -1.779894 -2.452636 -12.636404 8.222148 -4.050841 2.550296 -13.414618 0.000000 0.000000 0.000000 -10.231571 -0.830244 0.900468 -39.746496 -6.666728 -3.242380 -126.608144 -52.425065 102.485975 0.000000 0.000000 0.000000 2.615095 -1.789507 -1.239407 37.841421 -15.258612 -8.139151 98.321705 39.870699 39.772556 0.000000 0.000000 0.000000 
-0.021236 1.000762 0.000037 -3.627023 4.210938 6.000107 0.326705 0.999485 12.716876 3.559115 -2.271516 24.291306 -6.359260 -0.383329 22.718351 0.000000 0.000000 0.000000 5.707557 4.020272 -29.634320 2.056462 0.010390 18.512619 -5.161562 -14.510961 15.025856 0.000000 0.000000 0.000000 1.926573 0.059549 -2.146629 5.595370 -2.569541 -0.965604 -3.465477 -11.601488 8.032535 -4.536616 3.094453 -11.276270 0.000000 0.000000 0.000000 -9.974503 -0.472350 0.495234 -40.497908 -5.716742 -3.479387 -126.723288 -49.076870 97.296792 0.000000 0.000000 0.000000 0.218842 -0.939783 -0.400645 41.227177 -16.548029 -9.542212 98.201754 40.919236 42.055648 0.000000 0.000000 0.000000 
-0.025911 0.985308 0.003150 -2.863608 4.723262 5.171096 0.891872 0.615423 8.588185 1.337270 -3.099565 42.136400 -2.984825 2.397341 17.696418 0.000000 0.000000 0.000000 6.937774 3.774022 -26.089376 1.903840 0.024289 18.398715 -5.758144 -15.315112 12.597764 0.000000 0.000000 0.000000 1.111228 0.048524 -1.637926 5.230698 -2.496932 -0.031265 -2.771392 -8.403726 7.826386 -3.512274 2.688972 -10.189904 0.000000 0.000000 0.000000 -9.705237 -0.602966 0.120629 -40.639895 -4.207898 -3.844405 -125.460900 -47.660849 91.089913 0.000000 0.000000 0.000000 1.254822 -0.733277 -0.461729 43.044952 -17.149395 -10.113512 99.571193 43.856408 48.845503 0.000000 0.000000 0.000000 
-0.031078 0.948386 0.000239 -2.393217 4.116215 2.748204 3.296570 -0.044801 0.825632 -2.708203 -2.224098 64.366229 0.535254 5.235360 10.557354 0.000000 0.000000 0.000000 7.733917 3.371827 -21.948224 4.573717 -0.931979 28.273119 -7.641404 -18.857014 3.847272 0.000000 0.000000 0.000000 0.769690 -0.050497 0.753728 4.438446 -2.201129 0.778795 -2.061405 -3.993613 9.216703 -4.024490 3.400464 -12.472405 0.000000 0.000000 0.000000 -10.476474 0.830967 -1.051110 -41.118331 -2.094731 -4.542087 -121.026424 -45.697134 79.804644 0.000000 0.000000 0.000000 2.769845 0.263964 -0.176715 44.744160 -11.956542 -8.728247 97.657372 50.677520 57.956234 0.000000 0.000000 0.000000 
-0.034743 0.910961 -0.010797 -2.295577 3.330695 0.505330 5.132955 -0.578944 -9.994290 -6.268059 0.734320 80.616548 5.438515 11.116351 -1.121913 0.000000 0.000000 0.000000 9.180166 2.755919 -16.529010 4.752724 -1.094537 34.273949 -8.324622 -20.818994 -6.015856 0.000000 0.000000 0.000000 0.620558 -0.198957 4.068113 2.566661 -1.254483 0.281727 0.518169 0.986958 10.363598 -2.671982 3.006851 -14.337360 0.000000 0.000000 0.000000 -12.459309 0.466134 -1.677297 -39.971604 1.855327 -5.549569 -113.349125 -46.062338 68.683699 0.000000 0.000000 0.000000 3.374146 2.299543 0.734618 46.053757 -5.821649 -6.843326 104.284186 59.274246 77.224692 0.000000 0.000000 0.000000 
-0.034718 0.896678 -0.022509 -0.798250 1.520373 0.455222 4.961010 -1.345075 -24.653456 -9.127856 5.513279 86.653405 8.745241 17.930591 -0.695490 0.000000 0.000000 0.000000 8.066899 1.514286 -9.913827 3.451371 -0.256698 34.756335 -8.447718 -21.254344 -11.801652 0.000000 0.000000 0.000000 -0.165438 -0.238921 5.995928 0.435416 -0.202049 -0.191894 1.456519 6.659512 10.444765 -2.591655 3.471731 -14.887068 0.000000 0.000000 0.000000 -12.186948 1.467081 -2.816874 -39.605384 5.872562 -6.518727 -106.662285 -45.092152 58.023246 0.000000 0.000000 0.000000 4.862213 2.572212 1.104566 45.681042 1.564854 -4.154346 113.239649 65.188392 97.012074 0.000000 0.000000 0.000000 
-0.031861 0.909370 -0.027987 0.873305 0.157662 1.841525 3.093915 -2.489742 -36.810525 -8.487884 5.090825 78.075374 8.610935 17.857101 2.640186 0.000000 0.000000 0.000000 6.481912 -0.339757 0.987615 -0.036519 1.053858 25.455642 -7.334457 -17.516192 -8.623643 0.000000 0.000000 0.000000 -1.620996 -0.122418 5.547200 -1.034599 0.528414 -2.072981 2.999786 12.173781 12.143088 -0.573023 2.660923 -14.147717 0.000000 0.000000 0.000000 -11.283639 3.730389 -4.284191 -38.337953 11.269644 -7.858357 -105.517654 -42.001532 50.594891 0.000000 0.000000 0.000000 3.061755 2.222164 1.102113 47.244247 6.084349 -2.348596 129.299608 68.451973 123.564700 0.000000 0.000000 0.000000 
-0.027737 0.937419 -0.026326 2.720292 -0.746837 3.679235 -1.296716 -4.142569 -40.455648 -5.543507 1.863207 56.681166 8.099617 17.289373 7.877939 0.000000 0.000000 0.000000 3.882932 -1.468975 10.003537 -1.949614 1.196641 16.725442 -5.166411 -13.612444 4.571483 0.000000 0.000000 0.000000 -3.321192 0.032289 3.727841 -2.678041 1.263446 -2.353958 3.922314 15.852725 10.836569 1.674028 1.121670 -11.566122 0.000000 0.000000 0.000000 -9.198188 4.636160 -4.453846 -37.213824 16.737771 -9.193992 -106.217747 -41.449611 48.865249 0.000000 0.000000 0.000000 1.330370 2.328446 1.082091 49.132729 7.388032 -1.314698 140.207812 66.601233 138.841868 0.000000 0.000000 0.000000 
-0.023724 0.967283 -0.019835 3.144601 -0.518214 5.885888 -4.043002 -4.784449 -38.115875 -0.915734 -0.648081 29.150598 4.273796 11.667745 12.401042 0.000000 0.000000 0.000000 2.766633 -1.937262 14.672510 -3.236934 1.267919 13.400178 -3.764642 -12.638292 15.484160 0.000000 0.000000 0.000000 -3.026677 0.084240 0.440595 -3.603286 1.679011 -1.533934 3.626685 17.110164 9.885386 3.141885 -0.084523 -9.804173 0.000000 0.000000 0.000000 -7.003996 5.560937 -4.243374 -37.241133 21.119212 -10.672463 -107.054727 -40.136375 47.084721 0.000000 0.000000 0.000000 0.266120 1.962733 0.859752 49.050194 7.499798 -1.032801 141.781683 64.007421 140.450456 0.000000 0.000000 0.000000 
-0.020876 0.979116 -0.010997 2.663224 0.197140 6.832597 -5.790366 -4.949423 -35.116519 1.426130 -0.736162 12.192227 -0.367769 4.744428 13.957318 0.000000 0.000000 0.000000 2.406920 -2.135853 16.480280 -2.514830 1.499311 19.789389 -3.204582 -12.384281 20.401077 0.000000 0.000000 0.000000 -2.159402 0.117611 -2.166420 -4.888425 2.281368 -0.485748 4.460705 16.588094 8.488307 3.456987 -0.823910 -7.574796 0.000000 0.000000 0.000000 -7.255000 5.489621 -4.254024 -36.882445 23.626017 -11.264097 -107.415437 -40.132231 47.828053 0.000000 0.000000 0.000000 -0.328215 2.646541 1.053068 47.255912 4.290295 -2.179037 140.741483 60.442134 135.200258 0.000000 0.000000 0.000000 
